<?xml version="1.0" encoding="UTF-8"?>
<svg id="Camada_1" data-name="Camada 1" xmlns="http://www.w3.org/2000/svg" viewBox="0 0 52 52">
  <defs>
    <style>
      .cls-1 {
        fill: #fff;
      }
      /* Aba clara: o desenho branco desapareceria no chrome do browser. */
      @media (prefers-color-scheme: light) {
        .cls-1 {
          fill: #0a0a0a;
        }
      }
    </style>
  </defs>
  <path class="cls-1" d="M38.38,38.38c-3.17,3.17-7.55,5.14-12.39,5.14-9.66,0-17.52-7.86-17.52-17.52s7.86-17.52,17.52-17.52,17.52,7.86,17.52,17.52c0,4.83-1.96,9.21-5.14,12.39,1.32-1.31,3.13-2.13,5.14-2.13,1.62,0,3.12.53,4.33,1.43,1.87-3.49,2.93-7.46,2.93-11.69,0-13.66-11.11-24.77-24.78-24.77S1.22,12.33,1.22,25.99s11.11,24.78,24.77,24.78c4.23,0,8.2-1.06,11.69-2.93-.89-1.21-1.43-2.71-1.43-4.33,0-2,.81-3.82,2.13-5.14Z"/>
  <path class="cls-1" d="M47.84,37.68c-2.31,4.3-5.86,7.85-10.16,10.16,1.32,1.78,3.44,2.94,5.83,2.94,4.01,0,7.26-3.25,7.26-7.26,0-2.39-1.15-4.51-2.94-5.83Z"/>
</svg>
